<svg width="125" height="126" viewBox="0 0 125 126" fill="none" xmlns="http://www.w3.org/2000/svg">
<g clip-path="url(#clip0_4124_37527)">
<path fill-rule="evenodd" clip-rule="evenodd" d="M64.1697 36.7735H61.68C58.0836 36.8666 54.7639 37.7971 51.7209 39.1929C51.5364 39.286 50.7065 39.5651 50.061 39.5651H49.0467C42.8683 39.5651 37.8888 34.5402 37.8888 28.3056C37.8888 22.071 42.4073 17.0461 49.0467 17.0461C63.8931 17.0461 80.4916 30.3528 85.7478 49.5219C85.9322 49.9871 85.2867 50.1732 85.1023 49.801C80.9527 42.3567 73.2067 37.2388 64.1697 36.7735ZM71.9389 77.5891C71.8944 77.9587 71.8499 78.3282 71.7139 78.6867C70.2226 84.1307 65.3275 87.759 59.7787 87.5596C59.0463 87.4715 58.2223 87.3723 57.4095 87.1807C46.1793 84.7977 38.2167 74.5602 38.4973 62.972C38.5615 61.6676 38.7172 60.3742 38.8729 59.0807C39.0646 58.2603 39.2451 57.5322 39.4145 56.8965C41.8778 48.008 49.1763 41.3886 57.8413 39.6201L57.6359 39.7828C57.5333 39.8642 57.4077 39.9428 57.2821 40.0214C57.1566 40.1 57.031 40.1786 56.9283 40.26C56.7341 40.3303 56.6314 40.4117 56.5287 40.493C56.4205 40.6206 56.2922 40.7223 56.1638 40.824C56.0355 40.9257 55.9071 41.0274 55.7989 41.155L55.5935 41.3177C55.3025 41.4874 55.1027 41.7179 54.8923 41.9606L54.8923 41.9607L54.8923 41.9607L54.8922 41.9607C54.8138 42.0512 54.7339 42.1434 54.6472 42.2347C54.5959 42.2754 54.5674 42.3189 54.539 42.3623C54.5105 42.4057 54.4821 42.4492 54.4308 42.4899L53.7813 43.2552C53.7244 43.3421 53.6932 43.4086 53.662 43.4751C53.6307 43.5417 53.5995 43.6082 53.5426 43.6951C53.5082 43.7477 53.4643 43.8078 53.4164 43.8733C53.3061 44.0243 53.1745 44.2045 53.0874 44.3901C53.0305 44.477 52.9993 44.5435 52.9681 44.61C52.9368 44.6766 52.9056 44.7431 52.8487 44.83L52.4739 45.6284C52.3713 45.7098 52.2575 45.8835 52.2352 46.0683C52.1728 46.2013 52.1304 46.3603 52.0881 46.5192C52.0457 46.6781 52.0034 46.837 51.9409 46.9701C51.9298 47.0625 51.8985 47.129 51.8673 47.1956C51.8361 47.2621 51.8048 47.3286 51.7937 47.421C51.7659 47.652 51.7152 47.8802 51.6645 48.1084C51.6138 48.3366 51.5631 48.5648 51.5353 48.7958C50.2904 56.0502 55.1299 62.9125 62.3292 64.0604C68.7046 65.1091 72.9922 71.1551 71.9389 77.5891ZM87.1044 67.423C89.1998 54.6474 81.0019 42.5071 68.5122 39.785C68.3291 39.763 68.1259 39.7151 67.9227 39.6672L67.9227 39.6672L67.9226 39.6672C67.7194 39.6193 67.5162 39.5714 67.3331 39.5494L66.2345 39.4171C60.6164 39.0219 55.6187 42.7316 54.1274 48.1756C53.9913 48.5341 53.9468 48.9037 53.9023 49.2732C52.8491 55.7072 57.1367 61.7532 63.512 62.8019C70.7113 63.9498 75.5508 70.8121 74.3059 78.0665C74.2503 78.5285 74.1032 78.9793 73.956 79.4302L73.956 79.4303C73.9449 79.5227 73.9136 79.5892 73.8824 79.6558C73.8512 79.7223 73.82 79.7888 73.8088 79.8812C73.7464 80.0143 73.704 80.1732 73.6617 80.3321C73.6193 80.491 73.577 80.65 73.5145 80.783C73.5015 80.8913 73.457 80.9957 73.4202 81.0823C73.3942 81.1434 73.3719 81.1957 73.3673 81.2339L72.9926 82.0324C72.9357 82.1192 72.9044 82.1858 72.8732 82.2523C72.842 82.3188 72.8108 82.3854 72.7539 82.4722C72.6914 82.6053 72.6061 82.7356 72.5207 82.8659L72.5207 82.8659L72.5207 82.866C72.4353 82.9963 72.35 83.1266 72.2875 83.2596C72.2362 83.3003 72.205 83.3669 72.1737 83.4334C72.1425 83.4999 72.1113 83.5665 72.0599 83.6071C71.9461 83.7809 71.8351 83.9315 71.7241 84.0822C71.6131 84.2328 71.5021 84.3835 71.3883 84.5573C71.3827 84.6035 71.357 84.6238 71.3314 84.6441C71.3057 84.6645 71.28 84.6848 71.2745 84.731C70.9553 85.0675 70.6362 85.404 70.3282 85.6481L70.0201 85.8922C69.8037 86.1473 69.5983 86.31 69.3014 86.4617C69.2703 86.4863 69.2308 86.51 69.1877 86.5357C69.0885 86.5951 68.97 86.666 68.8907 86.7872C68.7881 86.8685 68.6626 86.9471 68.537 87.0256L68.5369 87.0257C68.4113 87.1044 68.2858 87.183 68.1831 87.2643L67.9777 87.4271C68.0235 87.4326 68.0721 87.415 68.1206 87.3974C68.1692 87.3798 68.2177 87.3622 68.2635 87.3677C78.0939 85.1771 85.4454 77.3457 87.1044 67.423ZM61.2283 90.0862H63.7181C67.3145 89.9931 70.6342 89.0626 73.6772 87.6668C73.8616 87.5738 74.6916 87.2946 75.3371 87.2946H76.3514C82.5297 87.2946 87.5093 92.3195 87.5093 98.5541C87.5093 104.789 82.9908 109.814 76.3514 109.814C61.505 109.814 44.9987 96.4138 39.6503 77.3379C39.4659 76.8726 40.1114 76.6865 40.2958 77.0587C44.4454 84.503 52.1914 89.6209 61.2283 90.0862Z" fill="#FF4600"/>
</g>
<defs>
<clipPath id="clip0_4124_37527">
<rect width="125" height="125" fill="white" transform="translate(0 0.535889)"/>
</clipPath>
</defs>
</svg>
